<svg t="1684541152311" class="icon" viewBox="0 0 1024 1024" version="1.1" xmlns="http://www.w3.org/2000/svg" p-id="949" width="16" height="16"><path d="M854.68 457.34l46.58-5.89a14.93 14.93 0 0 0 13.07-14.82v-25.26a14.94 14.94 0 0 0-14.94-14.94H823a14.84 14.84 0 0 0-8 2.35c10.15 14.22 24.24 34.53 39.68 58.56zM812.41 402.23v-1.38c-0.01 0.46 0 0.92 0 1.38zM626.83 711.15v-0.62c0-47.48 26.82-116.87 51.92-166l0.09-0.15c12.81-24.56 27.12-50 43.75-77.68l0.26-0.42c5.34-8.44 10.06-15.88 14.28-22.51a19.79 19.79 0 0 1-3.39 0.29H287.21A19.58 19.58 0 0 1 268 420.58l17.62-86.26c6.19-27.65 31.6-49.28 60.63-53.59h2.44a1367.08 1367.08 0 0 1 321.94 0h-2.43c32 4.31 57.38 23.63 63.07 47.49l21.51 91.26c10.76-16.41 16.64-24.42 22.53-31.09a19.55 19.55 0 0 1 2.32-2.32 21.08 21.08 0 0 1 24.48-2.07l-20.9-86c-6.83-28.68-37.38-65.33-75.79-70.51a1668.57 1668.57 0 0 0-389.81 0c-34.88 5.18-68.36 43.39-75.78 76.62l-26 102.76a14.93 14.93 0 0 0-14.11-10.08h-76.46a14.93 14.93 0 0 0-14.93 14.94V437a14.92 14.92 0 0 0 13.06 14.82l64.24 8.18c-11.51 7.92-19.25 20-20.29 33.8L146.67 609h-0.27v94.3a21.8 21.8 0 0 0 21.81 21.81h16.94v57.1a25.11 25.11 0 0 0 25.11 25.11h83a25.11 25.11 0 0 0 25.11-25.11v-57.1h309.46q-0.78-6.87-1-13.96z m-375.09-51.81a47.82 47.82 0 1 1 47.83-47.82 47.82 47.82 0 0 1-47.83 47.82z" p-id="950"></path><path d="M792.23 434c-7.53 8.47-15.05 19.75-44.2 65.82-14.11 23.51-26.33 45.14-37.61 66.77-21.63 42.31-43.26 99.67-43.26 136.34 0.94 32 13.17 59.25 37.62 81.81 25.38 22.57 54.53 33.85 89.33 33.85s64.89-11.28 89.33-34.79c25.38-23.51 37.61-50.77 36.67-82.75 0-96.85-128.83-268-127.88-267z m0 0" fill="#F15A24" p-id="951"></path></svg>